<svg xmlns="http://www.w3.org/2000/svg" viewBox="0 0 512 512" role="img" aria-labelledby="title desc">
  <title id="title">Prompt Vault app icon</title>
  <desc id="desc">Dark macOS app icon with a vault drawer and prompt sheet motif.</desc>

  <defs>
    <linearGradient id="bg" x1="88" y1="64" x2="424" y2="448" gradientUnits="userSpaceOnUse">
      <stop offset="0" stop-color="#181818"/>
      <stop offset="1" stop-color="#111111"/>
    </linearGradient>
    <linearGradient id="mint" x1="140" y1="132" x2="372" y2="364" gradientUnits="userSpaceOnUse">
      <stop offset="0" stop-color="#6af0b5"/>
      <stop offset="1" stop-color="#50e3a4"/>
    </linearGradient>
    <filter id="shadow" x="-20%" y="-20%" width="140%" height="140%">
      <feDropShadow dx="0" dy="10" stdDeviation="14" flood-color="#000000" flood-opacity=".28"/>
    </filter>
  </defs>

  <rect x="36" y="36" width="440" height="440" rx="104" fill="url(#bg)"/>
  <rect x="36" y="36" width="440" height="440" rx="104" fill="none" stroke="#262626" stroke-width="10"/>

  <path d="M170 132h132c23 0 42 19 42 42v88c0 23-19 42-42 42H170c-23 0-42-19-42-42v-88c0-23 19-42 42-42Z" fill="#fafafa" filter="url(#shadow)"/>
  <path d="M316 132h14c23 0 42 19 42 42v88c0 23-19 42-42 42h-14c23 0 42-19 42-42v-88c0-23-19-42-42-42Z" fill="#e9e9e9"/>
  <path d="M220 177l42 35-42 35" fill="none" stroke="url(#mint)" stroke-width="20" stroke-linecap="round" stroke-linejoin="round"/>
  <path d="M285 246h34" stroke="url(#mint)" stroke-width="20" stroke-linecap="round"/>

  <path d="M138 246h236c36 0 66 30 66 66v46c0 36-30 66-66 66H138c-36 0-66-30-66-66v-46c0-36 30-66 66-66Z" fill="#1b1b1b"/>
  <path d="M138 246h236c36 0 66 30 66 66v18H72v-18c0-36 30-66 66-66Z" fill="#232323"/>
  <rect x="98" y="286" width="316" height="98" rx="40" fill="none" stroke="#fafafa" stroke-width="16"/>
  <path d="M256 286v98" stroke="#50e3a4" stroke-width="14" stroke-linecap="round"/>
  <path d="M182 334h36M294 334h36" stroke="#50e3a4" stroke-width="14" stroke-linecap="round"/>
  <circle cx="256" cy="334" r="18" fill="#50e3a4"/>
  <circle cx="256" cy="334" r="7" fill="#141414"/>
</svg>
