<svg xmlns="http://www.w3.org/2000/svg" viewBox="0 0 512 512" role="img" aria-labelledby="title desc">
  <title id="title">Prompt Vault logo</title>
  <desc id="desc">Rounded square vault icon with a prompt caret motif.</desc>
  <rect x="36" y="36" width="440" height="440" rx="112" fill="#141414"/>
  <rect x="36" y="36" width="440" height="440" rx="112" fill="none" stroke="#232323" stroke-width="12"/>
  <path d="M166 214h180c32 0 58 26 58 58v74c0 32-26 58-58 58H166c-32 0-58-26-58-58v-74c0-32 26-58 58-58Z" fill="none" stroke="#fafafa" stroke-width="18"/>
  <path d="M198 214v-16c0-50 40-90 90-90s90 40 90 90v16" fill="none" stroke="#50e3a4" stroke-width="18" stroke-linecap="round"/>
  <path d="M276 252l-34 44h28l-10 48 44-58h-30l16-34Z" fill="#50e3a4"/>
  <path d="M146 158h48" stroke="#50e3a4" stroke-width="14" stroke-linecap="round"/>
  <path d="M318 158h48" stroke="#50e3a4" stroke-width="14" stroke-linecap="round"/>
</svg>
